<svg width="38.000000" height="38.000000" viewBox="0 0 38 38" fill="none" xmlns="http://www.w3.org/2000/svg" xmlns:xlink="http://www.w3.org/1999/xlink">
	<desc>
			Created with Pixso.
	</desc>
	<defs>
		<clipPath id="clip296_153">
			<rect id="SVG" width="24.000000" height="24.000000" transform="translate(6.320007 7.000000)" fill="white" fill-opacity="0"/>
		</clipPath>
		<clipPath id="clip296_152">
			<rect id="div.framer-8yrgnb" rx="19.000000" width="38.000000" height="38.000000" transform="translate(-0.679993 0.000000)" fill="white" fill-opacity="0"/>
		</clipPath>
		<linearGradient id="paint_linear_296_152_0" x1="18.320007" y1="0.000000" x2="18.320007" y2="38.000000" gradientUnits="userSpaceOnUse">
			<stop stop-color="#2F292B"/>
			<stop offset="1.000000" stop-color="#040102"/>
		</linearGradient>
	</defs>
	<rect id="div.framer-8yrgnb" rx="19.000000" width="38.000000" height="38.000000" transform="translate(-0.679993 0.000000)" fill="url(#paint_linear_296_152_0)" fill-opacity="1.000000"/>
	<g clip-path="url(#clip296_152)">
		<g clip-path="url(#clip296_153)">
			<path id="Vector" d="M21.32 19.17L22.73 22L19.9 22L20.5 20.8L21.32 19.17ZM27.32 11.5L27.32 26.5C27.32 26.89 27.16 27.27 26.88 27.56C26.59 27.84 26.21 28 25.82 28L10.82 28C10.42 28 10.04 27.84 9.75 27.56C9.47 27.27 9.32 26.89 9.32 26.5L9.32 11.5C9.32 11.1 9.47 10.72 9.75 10.43C10.04 10.15 10.42 10 10.82 10L25.82 10C26.21 10 26.59 10.15 26.88 10.43C27.16 10.72 27.32 11.1 27.32 11.5ZM25.74 24.66L21.99 17.16C21.92 17.03 21.83 16.93 21.71 16.86C21.59 16.78 21.45 16.74 21.32 16.74C21.18 16.74 21.04 16.78 20.92 16.86C20.8 16.93 20.71 17.03 20.64 17.16L19.41 19.63C18.61 19.48 17.86 19.16 17.19 18.7C18.23 17.52 18.87 16.05 19.03 14.5L20.57 14.5C20.76 14.5 20.95 14.42 21.1 14.28C21.24 14.13 21.32 13.94 21.32 13.75C21.32 13.55 21.24 13.36 21.1 13.21C20.95 13.07 20.76 13 20.57 13L16.82 13L16.82 12.25C16.82 12.05 16.74 11.86 16.6 11.71C16.45 11.57 16.26 11.5 16.07 11.5C15.87 11.5 15.68 11.57 15.53 11.71C15.39 11.86 15.32 12.05 15.32 12.25L15.32 13L11.57 13C11.37 13 11.18 13.07 11.03 13.21C10.89 13.36 10.82 13.55 10.82 13.75C10.82 13.94 10.89 14.13 11.03 14.28C11.18 14.42 11.37 14.5 11.57 14.5L17.52 14.5C17.37 15.68 16.87 16.79 16.08 17.69C15.75 17.3 15.47 16.87 15.24 16.41C15.15 16.24 14.99 16.11 14.8 16.05C14.62 15.99 14.42 16.01 14.24 16.09C14.07 16.18 13.93 16.33 13.87 16.52C13.81 16.7 13.81 16.9 13.9 17.08C14.18 17.66 14.54 18.2 14.96 18.69C13.97 19.38 12.78 19.75 11.57 19.75C11.37 19.75 11.18 19.82 11.03 19.96C10.89 20.11 10.82 20.3 10.82 20.5C10.82 20.69 10.89 20.88 11.03 21.03C11.18 21.17 11.37 21.25 11.57 21.25C13.19 21.25 14.78 20.72 16.08 19.73C16.86 20.33 17.76 20.77 18.72 21.01L16.89 24.66C16.8 24.84 16.79 25.04 16.85 25.23C16.92 25.42 17.05 25.58 17.23 25.67C17.41 25.76 17.61 25.77 17.8 25.71C17.99 25.64 18.15 25.51 18.24 25.33L19.15 23.5L23.48 23.5L24.39 25.33C24.44 25.42 24.5 25.5 24.57 25.56C24.65 25.63 24.73 25.68 24.83 25.71C24.92 25.74 25.02 25.75 25.12 25.74C25.22 25.74 25.31 25.71 25.4 25.67C25.49 25.62 25.57 25.56 25.63 25.49C25.7 25.41 25.75 25.33 25.78 25.23C25.81 25.14 25.82 25.04 25.81 24.94C25.81 24.84 25.78 24.75 25.74 24.66Z" fill="#FFFFFF" fill-opacity="0.750000" fill-rule="nonzero"/>
		</g>
	</g>
</svg>
