<svg width="38.000000" height="38.000000" viewBox="0 0 38 38" fill="none" xmlns="http://www.w3.org/2000/svg" xmlns:xlink="http://www.w3.org/1999/xlink">
	<desc>
			Created with Pixso.
	</desc>
	<defs>
		<clipPath id="clip296_129">
			<rect id="SVG" width="24.000000" height="24.000000" transform="translate(7.000000 7.000000)" fill="white" fill-opacity="0"/>
		</clipPath>
		<clipPath id="clip296_128">
			<rect id="div.framer-8yrgnb" rx="19.000000" width="38.000000" height="38.000000" fill="white" fill-opacity="0"/>
		</clipPath>
		<linearGradient id="paint_linear_296_128_0" x1="19.000000" y1="0.000000" x2="19.000000" y2="38.000000" gradientUnits="userSpaceOnUse">
			<stop stop-color="#2F292B"/>
			<stop offset="1.000000" stop-color="#040102"/>
		</linearGradient>
	</defs>
	<rect id="div.framer-8yrgnb" rx="19.000000" width="38.000000" height="38.000000" fill="url(#paint_linear_296_128_0)" fill-opacity="1.000000"/>
	<g clip-path="url(#clip296_128)">
		<g clip-path="url(#clip296_129)">
			<path id="Vector" d="M23.5 8.5L14.5 8.5C13.9 8.5 13.33 8.73 12.9 9.15C12.48 9.58 12.25 10.15 12.25 10.75L12.25 27.25C12.25 27.84 12.48 28.41 12.9 28.84C13.33 29.26 13.9 29.5 14.5 29.5L23.5 29.5C24.09 29.5 24.66 29.26 25.09 28.84C25.51 28.41 25.75 27.84 25.75 27.25L25.75 10.75C25.75 10.15 25.51 9.58 25.09 9.15C24.66 8.73 24.09 8.5 23.5 8.5ZM22 13L16 13C15.8 13 15.61 12.92 15.46 12.78C15.32 12.63 15.25 12.44 15.25 12.25C15.25 12.05 15.32 11.86 15.46 11.71C15.61 11.57 15.8 11.5 16 11.5L22 11.5C22.19 11.5 22.38 11.57 22.53 11.71C22.67 11.86 22.75 12.05 22.75 12.25C22.75 12.44 22.67 12.63 22.53 12.78C22.38 12.92 22.19 13 22 13Z" fill="#FFFFFF" fill-opacity="0.750000" fill-rule="nonzero"/>
		</g>
	</g>
</svg>
