<svg width="40.000000" height="40.000000" viewBox="0 0 40 40" fill="none" xmlns="http://www.w3.org/2000/svg" xmlns:xlink="http://www.w3.org/1999/xlink">
	<desc>
			Created with Pixso.
	</desc>
	<defs>
		<clipPath id="clip1585_3">
			<rect id="discord" width="40.000000" height="40.000000" fill="white" fill-opacity="0"/>
		</clipPath>
	</defs>
	<rect id="discord" width="40.000000" height="40.000000" fill="#FFFFFF" fill-opacity="0"/>
	<g clip-path="url(#clip1585_3)">
		<path id="Vector" d="M30.54 12.51C28.61 11 26.25 10.12 23.8 10L23.47 10.38C25.65 10.96 27.68 11.99 29.43 13.42C27.2 12.19 24.75 11.41 22.22 11.12C20.61 10.94 18.98 10.96 17.38 11.16L16.98 11.21C15.1 11.43 13.26 11.94 11.54 12.72C10.65 13.13 10.13 13.42 10.13 13.42C11.97 11.92 14.12 10.85 16.42 10.28L16.18 10C13.73 10.12 11.38 11 9.45 12.51C7.25 16.85 6.07 21.62 6 26.48C6 26.48 8.01 29.96 13.3 30.13C13.3 30.13 14.19 29.05 14.92 28.14C13.23 27.71 11.75 26.71 10.72 25.31L11.39 25.71L11.49 25.78L11.59 25.84L11.61 25.85L11.71 25.9C12.27 26.21 12.86 26.49 13.46 26.72C14.6 27.17 15.78 27.51 16.98 27.75C19.03 28.14 21.14 28.15 23.19 27.77C24.38 27.56 25.55 27.22 26.66 26.74C27.63 26.38 28.56 25.91 29.42 25.33C28.35 26.77 26.82 27.78 25.08 28.19C25.8 29.09 26.66 30.13 26.66 30.13C31.96 29.96 34 26.48 34 26.48C33.91 21.62 32.73 16.85 30.54 12.51ZM15.51 24.25C14.83 24.22 14.2 23.93 13.74 23.43C13.28 22.93 13.04 22.27 13.06 21.59C13.05 21.26 13.1 20.92 13.22 20.61C13.33 20.29 13.51 20 13.74 19.76C13.96 19.51 14.24 19.31 14.54 19.17C14.84 19.03 15.17 18.95 15.51 18.93C15.84 18.95 16.18 19.02 16.48 19.16C16.79 19.31 17.06 19.51 17.29 19.75C17.52 20 17.69 20.29 17.81 20.61C17.92 20.92 17.97 21.26 17.95 21.59C17.97 21.93 17.92 22.26 17.8 22.58C17.69 22.89 17.51 23.18 17.28 23.43C17.06 23.68 16.78 23.88 16.48 24.02C16.17 24.16 15.84 24.24 15.51 24.25ZM24.26 24.25C23.58 24.22 22.94 23.93 22.49 23.43C22.03 22.93 21.79 22.27 21.81 21.59C21.8 21.26 21.85 20.92 21.96 20.61C22.08 20.29 22.25 20 22.48 19.76C22.71 19.51 22.98 19.31 23.29 19.17C23.59 19.03 23.92 18.95 24.26 18.93C24.59 18.95 24.92 19.03 25.22 19.17C25.53 19.31 25.8 19.51 26.03 19.76C26.26 20 26.43 20.29 26.55 20.61C26.66 20.92 26.71 21.26 26.7 21.59C26.71 21.93 26.66 22.26 26.55 22.58C26.43 22.89 26.26 23.18 26.03 23.43C25.8 23.68 25.53 23.88 25.22 24.02C24.92 24.16 24.59 24.24 24.26 24.25Z" fill="#FFFFFF" fill-opacity="1.000000" fill-rule="nonzero"/>
	</g>
</svg>
