<svg width="125.000000" height="40.000000" viewBox="0 0 125 40" fill="none" xmlns="http://www.w3.org/2000/svg" xmlns:xlink="http://www.w3.org/1999/xlink">
	<desc>
			Created with Pixso.
	</desc>
	<defs>
		<clipPath id="clip1738_56">
			<rect id="Frame" width="125.000000" height="40.000000" fill="white" fill-opacity="0"/>
		</clipPath>
	</defs>
	<rect id="Frame" width="125.000000" height="40.000000" fill="#FFFFFF" fill-opacity="0"/>
	<g clip-path="url(#clip1738_56)">
		<path id="减去顶层" d="M13.18 29.87C15.11 31.21 17.46 32 20 32C26.26 32 31.41 27.18 31.95 21.05C29.64 22.75 26.45 24.62 22.81 26.32C19.28 27.96 15.91 29.18 13.18 29.87Z" fill="#FFFFFF" fill-opacity="1.000000" fill-rule="evenodd"/>
		<path id="减去顶层" d="M30.88 14.93C29.87 15.13 28.75 15.41 27.54 15.78C27.27 15.3 26.96 14.86 26.61 14.44C25.26 12.82 23.43 11.83 21.5 11.49C19.41 11.12 17.37 11.53 15.68 12.51C13.85 13.57 12.55 15.2 11.88 17.04C11.15 19.03 11.21 21.11 11.88 22.95C11.9 23 11.92 23.06 11.94 23.12C10.88 23.82 9.94 24.52 9.17 25.17C8.42 23.6 8 21.85 8 20C8 13.37 13.37 8 20 8C24.81 8 28.96 10.84 30.88 14.93Z" fill="#FFFFFF" fill-opacity="1.000000" fill-rule="evenodd"/>
		<path id="减去顶层" d="M22.41 14.2C21.96 14.2 21.61 14.56 21.61 15C21.61 15.34 21.82 15.63 22.12 15.75C22.14 16.01 22.12 16.27 22.07 16.53C21.98 17.08 21.75 17.58 21.43 18C21.74 17.86 22.05 17.73 22.36 17.6C22.51 17.29 22.61 16.96 22.67 16.63C22.72 16.33 22.74 16.03 22.72 15.74C23.01 15.61 23.21 15.33 23.21 15C23.21 14.56 22.85 14.2 22.41 14.2ZM17.21 20C17.51 19.85 17.81 19.69 18.12 19.54C17.65 19.52 17.19 19.4 16.78 19.2C16.48 19.05 16.2 18.87 15.97 18.65C15.99 18.57 16.01 18.49 16.01 18.4C16.01 17.96 15.65 17.6 15.21 17.6C14.76 17.6 14.41 17.96 14.41 18.4C14.41 18.84 14.76 19.2 15.21 19.2C15.34 19.2 15.47 19.17 15.58 19.11C15.87 19.37 16.18 19.58 16.52 19.74C16.75 19.85 16.98 19.94 17.21 20Z" fill="#FFFFFF" fill-opacity="1.000000" fill-rule="evenodd"/>
		<path id="矢量 15" d="M6.48 29.1C5.62 27.26 11.41 22.73 19.42 19C27.43 15.26 34.62 13.73 35.48 15.58C36.34 17.43 30.55 21.95 22.54 25.68C14.53 29.42 7.34 30.95 6.48 29.1Z" fill="#FFFFFF" fill-opacity="1.000000" fill-rule="evenodd"/>
		<path id="Vizing" d="M57.32 14.2C57.76 14.6 58.34 14.79 59.06 14.79C59.66 14.79 60.16 14.66 60.57 14.38C60.65 14.32 60.73 14.26 60.81 14.19C61.25 13.78 61.47 13.26 61.47 12.63C61.47 12.04 61.25 11.55 60.81 11.17C60.37 10.79 59.78 10.6 59.06 10.6C58.34 10.6 57.76 10.8 57.32 11.2C56.87 11.6 56.65 12.1 56.65 12.7C56.65 13.29 56.87 13.79 57.32 14.2ZM76.99 14.2C77.43 14.6 78.02 14.79 78.74 14.79C79.46 14.79 80.04 14.59 80.48 14.19C80.93 13.78 81.15 13.26 81.15 12.63C81.15 12.04 80.93 11.55 80.48 11.17C80.04 10.79 79.46 10.6 78.74 10.6C78.02 10.6 77.43 10.8 76.99 11.2C76.55 11.6 76.33 12.1 76.33 12.7C76.33 13.29 76.55 13.79 76.99 14.2ZM55.31 12.76L49.07 27.32L45.01 27.32L38.8 12.76L43.24 12.76L47.19 22.24L51.23 12.76L55.31 12.76ZM91.42 15.86C92.81 15.86 93.94 16.27 94.79 17.11C94.81 17.12 94.82 17.14 94.84 17.15C95.66 17.98 96.07 19.22 96.07 20.87L96.07 27.32L92.12 27.32L92.12 21.51C92.12 19.98 91.5 19.21 90.27 19.21C89.59 19.21 89.05 19.43 88.64 19.87C88.23 20.32 88.02 20.98 88.02 21.87L88.02 27.32L84.07 27.32L84.07 16.04L87.84 16.04L87.84 17.27C88.28 16.81 88.81 16.46 89.41 16.22C90.03 15.98 90.69 15.86 91.42 15.86ZM111.64 25.26L111.64 16.04L107.87 16.04L107.87 17.41C107.7 17.17 107.49 16.95 107.26 16.76C106.54 16.16 105.56 15.86 104.34 15.86C103.34 15.86 102.42 16.08 101.57 16.53C100.73 16.98 100.06 17.62 99.56 18.45C99.48 18.58 99.4 18.71 99.34 18.85C98.98 19.58 98.81 20.39 98.81 21.28C98.81 22.37 99.06 23.32 99.56 24.15C100.06 24.97 100.73 25.61 101.57 26.06C102.42 26.51 103.34 26.73 104.34 26.73C105.81 26.73 106.93 26.29 107.69 25.4L107.69 25.78C107.69 26.61 107.49 27.25 107.07 27.7C107.04 27.74 107 27.78 106.96 27.82C106.48 28.27 105.71 28.5 104.68 28.5C103.99 28.5 103.3 28.39 102.6 28.18C101.9 27.96 101.32 27.67 100.87 27.3L99.43 30.06C100.11 30.55 100.94 30.91 101.91 31.16C102.88 31.41 103.92 31.54 105.03 31.54C107.16 31.54 108.8 31.01 109.94 29.97C110.03 29.88 110.12 29.79 110.2 29.7C111.16 28.66 111.64 27.18 111.64 25.26ZM61.04 16.04L57.09 16.04L57.09 27.32L61.04 27.32L61.04 16.04ZM74.21 24.36L74.21 27.32L63.81 27.32L63.81 24.99L69.03 18.98L63.96 18.98L63.96 16.04L74.01 16.04L74.01 18.35L68.78 24.36L74.21 24.36ZM80.71 16.04L76.76 16.04L76.76 27.32L80.71 27.32L80.71 16.04ZM107.03 22.95C106.57 23.38 105.98 23.6 105.27 23.6C104.57 23.6 103.98 23.38 103.51 22.95C103.04 22.52 102.8 21.97 102.8 21.28C102.8 20.6 103.03 20.05 103.5 19.63C103.96 19.21 104.55 19 105.27 19C106 19 106.58 19.21 107.04 19.63C107.5 20.05 107.73 20.6 107.73 21.28C107.73 21.97 107.5 22.52 107.03 22.95Z" fill="#FFFFFF" fill-opacity="1.000000" fill-rule="evenodd"/>
	</g>
</svg>
