<svg width="40.000000" height="40.000000" viewBox="0 0 40 40" fill="none" xmlns="http://www.w3.org/2000/svg" xmlns:xlink="http://www.w3.org/1999/xlink">
	<desc>
			Created with Pixso.
	</desc>
	<defs>
		<clipPath id="clip1587_7">
			<rect id="Frame" width="40.000000" height="40.000000" fill="white" fill-opacity="0"/>
		</clipPath>
	</defs>
	<rect id="Frame" width="40.000000" height="40.000000" fill="#FFFFFF" fill-opacity="0"/>
	<g clip-path="url(#clip1587_7)">
		<path id="Vector" d="M19.95 4C11.14 4 4 11.34 4 20.39C4 27.63 8.59 33.77 14.86 35.98C15.64 36.08 15.93 35.58 15.93 35.18C15.93 34.77 15.93 33.77 15.93 32.36C11.53 33.37 10.55 30.15 10.55 30.15C9.87 28.24 8.79 27.73 8.79 27.73C7.32 26.73 8.89 26.73 8.89 26.73C10.45 26.83 11.33 28.44 11.33 28.44C12.8 30.95 15.05 30.25 15.93 29.85C16.03 28.74 16.52 28.04 16.91 27.63C13.39 27.23 9.67 25.82 9.67 19.49C9.67 17.68 10.26 16.27 11.33 15.06C11.24 14.76 10.65 13.05 11.53 10.83C11.53 10.83 12.9 10.43 15.93 12.54C17.21 12.14 18.58 12.04 19.95 12.04C21.32 12.04 22.69 12.24 23.96 12.54C26.99 10.43 28.36 10.83 28.36 10.83C29.24 13.05 28.66 14.76 28.56 15.16C29.54 16.27 30.22 17.78 30.22 19.59C30.22 25.92 26.5 27.23 22.98 27.63C23.57 28.14 24.06 29.14 24.06 30.65C24.06 32.86 24.06 34.57 24.06 35.18C24.06 35.58 24.35 36.08 25.13 35.98C31.49 33.77 36 27.63 36 20.39C35.9 11.34 28.75 4 19.95 4Z" fill="#FFFFFF" fill-opacity="1.000000" fill-rule="evenodd"/>
	</g>
</svg>
