<svg width="16.000000" height="13.000000" viewBox="0 0 16 13" fill="none" xmlns="http://www.w3.org/2000/svg" xmlns:xlink="http://www.w3.org/1999/xlink">
	<desc>
			Created with Pixso.
	</desc>
	<defs/>
	<path id="Vector" d="M13.54 1.01C12.5 0.53 11.4 0.19 10.28 0C10.27 -0.01 10.26 0 10.25 0C10.24 0 10.23 0.01 10.23 0.02C10.09 0.27 9.93 0.6 9.82 0.85C8.61 0.67 7.38 0.67 6.17 0.85C6.04 0.57 5.91 0.29 5.75 0.02C5.75 0.01 5.74 0 5.73 0C5.72 0 5.71 -0.01 5.7 0C4.58 0.19 3.48 0.53 2.45 1.01C2.44 1.01 2.43 1.02 2.42 1.02C0.35 4.12 -0.22 7.14 0.06 10.13C0.06 10.14 0.06 10.14 0.07 10.15C0.07 10.16 0.08 10.16 0.08 10.17C1.29 11.06 2.64 11.74 4.08 12.19C4.09 12.19 4.1 12.19 4.11 12.18C4.12 12.18 4.13 12.18 4.13 12.17C4.44 11.75 4.71 11.3 4.95 10.84C4.95 10.83 4.96 10.82 4.96 10.82C4.96 10.81 4.95 10.8 4.95 10.8C4.95 10.79 4.95 10.78 4.94 10.78C4.93 10.77 4.93 10.77 4.92 10.77C4.49 10.6 4.07 10.4 3.67 10.17C3.67 10.17 3.66 10.16 3.66 10.15C3.65 10.15 3.65 10.14 3.65 10.13C3.65 10.12 3.65 10.11 3.65 10.11C3.66 10.1 3.66 10.09 3.67 10.09C3.75 10.02 3.84 9.96 3.92 9.89C3.92 9.89 3.93 9.88 3.94 9.88C3.95 9.88 3.96 9.88 3.97 9.89C6.59 11.08 9.42 11.08 12.01 9.89C12.02 9.88 12.03 9.88 12.03 9.88C12.04 9.88 12.05 9.89 12.06 9.89C12.14 9.96 12.22 10.02 12.31 10.09C12.31 10.09 12.32 10.1 12.32 10.11C12.33 10.11 12.33 10.12 12.33 10.13C12.33 10.14 12.33 10.15 12.32 10.15C12.32 10.16 12.31 10.17 12.3 10.17C11.9 10.41 11.49 10.6 11.06 10.77C11.05 10.77 11.04 10.78 11.03 10.79C11.02 10.79 11.02 10.81 11.02 10.82C11.02 10.82 11.02 10.83 11.03 10.84C11.27 11.3 11.54 11.75 11.84 12.17C11.85 12.17 11.86 12.18 11.87 12.18C11.88 12.19 11.89 12.19 11.9 12.18C13.34 11.74 14.69 11.06 15.9 10.17C15.91 10.16 15.91 10.16 15.92 10.15C15.92 10.14 15.92 10.14 15.92 10.13C16.26 6.68 15.36 3.68 13.56 1.02C13.55 1.02 13.55 1.01 13.54 1.01ZM5.34 8.31C4.55 8.31 3.9 7.59 3.9 6.7C3.9 5.81 4.54 5.09 5.34 5.09C6.15 5.09 6.79 5.82 6.78 6.7C6.78 7.59 6.14 8.31 5.34 8.31ZM10.66 8.31C9.87 8.31 9.22 7.59 9.22 6.7C9.22 5.81 9.85 5.09 10.66 5.09C11.46 5.09 12.11 5.82 12.09 6.7C12.09 7.59 11.46 8.31 10.66 8.31Z" fill="#FFFFFF" fill-opacity="1.000000" fill-rule="evenodd"/>
</svg>
