<svg width="163" height="56" viewBox="0 0 163 56" fill="none" xmlns="http://www.w3.org/2000/svg">
<g clip-path="url(#clip0_36_2107)">
<mask id="mask0_36_2107" style="mask-type:luminance" maskUnits="userSpaceOnUse" x="0" y="0" width="160" height="56">
<path d="M160 0H0V56H160V0Z" fill="white"/>
</mask>
<g mask="url(#mask0_36_2107)">
<path fill-rule="evenodd" clip-rule="evenodd" d="M20.6001 38.5H41.6001V23.8C41.6001 22.344 41.3411 21 40.8301 19.768C40.3121 18.529 39.5491 17.395 38.5201 16.373C37.4981 15.344 36.3641 14.581 35.1251 14.063C33.8931 13.552 32.5491 13.3 31.1001 13.3C28.1951 13.3 25.7241 14.322 23.6731 16.373C22.6441 17.395 21.8811 18.529 21.3631 19.768C20.8521 21 20.6001 22.344 20.6001 23.8V38.5ZM40.2001 37.1V23.8C40.2001 22.54 39.9761 21.378 39.5281 20.3C39.0871 19.229 38.4221 18.249 37.5331 17.36C35.7551 15.582 33.6061 14.7 31.1001 14.7C29.8401 14.7 28.6781 14.917 27.6001 15.365C26.5291 15.806 25.5491 16.471 24.6601 17.36C23.7711 18.249 23.1061 19.229 22.6651 20.3C22.2171 21.378 22.0001 22.54 22.0001 23.8V37.1H40.2001Z" fill="white"/>
<path fill-rule="evenodd" clip-rule="evenodd" d="M21.195 37.8H40.998L54.2 47.6H27.096H8L21.195 37.8Z" fill="url(#paint0_linear_36_2107)"/>
<g filter="url(#filter0_d_36_2107)">
<path fill-rule="evenodd" clip-rule="evenodd" d="M31.0999 23.1C28.7803 23.1 26.8999 24.9804 26.8999 27.3C26.8999 28.6488 27.5358 29.8492 28.524 30.6176L26.8999 37.1H35.2999L33.6758 30.6176C34.664 29.8492 35.2999 28.6488 35.2999 27.3C35.2999 24.9804 33.4195 23.1 31.0999 23.1Z" fill="white"/>
</g>
<path fill-rule="evenodd" clip-rule="evenodd" d="M101.422 33.327L103.102 31.675L106.91 36.4H111.145L105.678 29.449L110.697 24.346H106.532L101.422 29.183V19.775H97.929V36.4H101.422V33.327ZM66.653 33.439V36.4H52.947V34.048L61.55 23.674H53.122V20.72H66.324V23.072L57.742 33.439H66.653ZM71.056 35.868C72.0267 36.3393 73.114 36.575 74.318 36.575C75.564 36.575 76.6817 36.3207 77.671 35.812C77.685 35.8027 77.7014 35.7933 77.72 35.784C78.728 35.252 79.505 34.517 80.072 33.572C80.1934 33.3713 80.303 33.1637 80.401 32.949C80.751 32.1697 80.926 31.311 80.926 30.373C80.926 29.4303 80.751 28.5693 80.401 27.79C80.303 27.5753 80.1934 27.3677 80.072 27.167C79.505 26.222 78.728 25.487 77.72 24.962C77.7014 24.9527 77.685 24.9433 77.671 24.934C76.6817 24.4253 75.564 24.171 74.318 24.171C73.114 24.171 72.0267 24.4067 71.056 24.878C71.0047 24.906 70.951 24.934 70.895 24.962C70.2744 25.2887 69.7377 25.6923 69.285 26.173C69.005 26.4717 68.7554 26.803 68.536 27.167C68.4194 27.3583 68.3144 27.5567 68.221 27.762C67.8664 28.5507 67.689 29.421 67.689 30.373C67.689 31.3203 67.8664 32.1883 68.221 32.977C68.3144 33.1823 68.4194 33.3807 68.536 33.572C68.7507 33.9267 68.9957 34.2533 69.271 34.552C69.7284 35.042 70.2697 35.4527 70.895 35.784C70.951 35.812 71.0047 35.84 71.056 35.868ZM85.728 35.868V35.861C85.672 35.8377 85.6184 35.812 85.567 35.784C84.9417 35.4527 84.4004 35.042 83.943 34.552C83.6677 34.258 83.4227 33.9313 83.208 33.572C82.641 32.634 82.361 31.563 82.361 30.373C82.361 29.176 82.641 28.105 83.208 27.167C83.4274 26.803 83.677 26.4717 83.957 26.173C84.4097 25.6923 84.9464 25.2887 85.567 24.962C85.6184 24.934 85.672 24.9083 85.728 24.885V24.878C86.6987 24.4067 87.786 24.171 88.99 24.171C90.257 24.171 91.398 24.43 92.392 24.962C93.4 25.487 94.177 26.222 94.744 27.167C95.311 28.105 95.598 29.176 95.598 30.373C95.598 31.563 95.311 32.634 94.744 33.572C94.177 34.517 93.4 35.252 92.392 35.784C91.398 36.316 90.257 36.575 88.99 36.575C87.786 36.575 86.6987 36.3393 85.728 35.868ZM123.997 30.415C123.997 30.464 123.976 30.772 123.934 31.353H114.813C114.902 31.7543 115.056 32.1113 115.275 32.424C115.462 32.69 115.697 32.9233 115.982 33.124C116.591 33.558 117.354 33.775 118.264 33.775C118.894 33.775 119.447 33.684 119.937 33.495C120.42 33.306 120.875 33.012 121.288 32.613L123.15 34.622C122.945 34.86 122.721 35.077 122.478 35.273C121.395 36.141 119.963 36.575 118.18 36.575C116.822 36.575 115.618 36.3113 114.568 35.784C113.525 35.252 112.713 34.517 112.146 33.572C111.579 32.634 111.299 31.563 111.299 30.373C111.299 29.4957 111.453 28.6837 111.761 27.937C111.868 27.6757 111.994 27.4237 112.139 27.181C112.699 26.229 113.469 25.487 114.442 24.962C115.422 24.43 116.521 24.171 117.732 24.171C118.74 24.171 119.666 24.3553 120.511 24.724C120.651 24.7893 120.791 24.857 120.931 24.927C121.374 25.165 121.776 25.4497 122.135 25.781C122.541 26.1637 122.889 26.607 123.178 27.111C123.192 27.1297 123.204 27.1507 123.213 27.174C123.736 28.1073 123.997 29.1877 123.997 30.415ZM132.628 37.135L138.067 24.346H134.707L131.305 32.522L127.924 24.346H124.312L129.534 36.484L129.485 36.596C129.247 37.1327 128.979 37.5153 128.68 37.744C128.386 37.982 127.994 38.094 127.518 38.094C127.175 38.094 126.825 38.031 126.475 37.898C126.125 37.765 125.817 37.576 125.551 37.338L124.27 39.823C124.662 40.166 125.159 40.439 125.768 40.628C126.377 40.824 127 40.922 127.63 40.922C128.778 40.922 129.765 40.635 130.577 40.068C131.389 39.5033 132.073 38.5257 132.628 37.135ZM117.753 26.81C116.962 26.81 116.297 27.034 115.758 27.482C115.613 27.6033 115.483 27.7363 115.366 27.881C115.058 28.273 114.86 28.7537 114.771 29.323H120.707C120.628 28.805 120.453 28.3593 120.182 27.986C120.051 27.804 119.897 27.6407 119.72 27.496C119.561 27.3607 119.393 27.244 119.216 27.146C118.787 26.922 118.299 26.81 117.753 26.81ZM76.523 32.802C75.949 33.404 75.214 33.705 74.318 33.705C73.7767 33.705 73.2914 33.5953 72.862 33.376C72.5867 33.2313 72.3324 33.04 72.099 32.802C71.9964 32.6947 71.903 32.5803 71.819 32.459C71.4224 31.9037 71.224 31.2083 71.224 30.373C71.224 29.5423 71.4177 28.8493 71.805 28.294C71.8937 28.1727 71.9917 28.056 72.099 27.944C72.3324 27.7013 72.5914 27.5053 72.876 27.356C73.3007 27.1413 73.7814 27.034 74.318 27.034C75.214 27.034 75.949 27.335 76.523 27.944C77.097 28.546 77.391 29.358 77.391 30.373C77.391 31.388 77.097 32.2 76.523 32.802ZM88.99 33.705C89.886 33.705 90.621 33.404 91.195 32.802C91.769 32.2 92.063 31.388 92.063 30.373C92.063 29.358 91.769 28.546 91.195 27.944C90.621 27.335 89.886 27.034 88.99 27.034C88.4534 27.034 87.9727 27.1413 87.548 27.356C87.2634 27.5053 87.0044 27.7013 86.771 27.944C86.19 28.546 85.896 29.358 85.896 30.373C85.896 31.388 86.19 32.2 86.771 32.802C87.0044 33.04 87.2587 33.2313 87.534 33.376C87.9634 33.5953 88.4487 33.705 88.99 33.705Z" fill="white"/>
</g>
</g>
<defs>
<filter id="filter0_d_36_2107" x="20.8999" y="17.1" width="20.3999" height="26" filterUnits="userSpaceOnUse" color-interpolation-filters="sRGB">
<feFlood flood-opacity="0" result="BackgroundImageFix"/>
<feColorMatrix in="SourceAlpha" type="matrix" values="0 0 0 0 0 0 0 0 0 0 0 0 0 0 0 0 0 0 127 0" result="hardAlpha"/>
<feOffset/>
<feGaussianBlur stdDeviation="3"/>
<feComposite in2="hardAlpha" operator="out"/>
<feColorMatrix type="matrix" values="0 0 0 0 1 0 0 0 0 1 0 0 0 0 1 0 0 0 1 0"/>
<feBlend mode="normal" in2="BackgroundImageFix" result="effect1_dropShadow_36_2107"/>
<feBlend mode="normal" in="SourceGraphic" in2="effect1_dropShadow_36_2107" result="shape"/>
</filter>
<linearGradient id="paint0_linear_36_2107" x1="31.1006" y1="37.8011" x2="31.1006" y2="47.6" gradientUnits="userSpaceOnUse">
<stop stop-color="white"/>
<stop offset="1" stop-opacity="0"/>
</linearGradient>
<clipPath id="clip0_36_2107">
<rect width="162.4" height="56" fill="white"/>
</clipPath>
</defs>
</svg>
