<svg width="38.000000" height="38.000000" viewBox="0 0 38 38" fill="none" xmlns="http://www.w3.org/2000/svg" xmlns:xlink="http://www.w3.org/1999/xlink">
	<desc>
			Created with Pixso.
	</desc>
	<defs>
		<clipPath id="clip296_141">
			<rect id="SVG" width="24.000000" height="24.000000" transform="translate(6.660034 7.000000)" fill="white" fill-opacity="0"/>
		</clipPath>
		<clipPath id="clip296_140">
			<rect id="div.framer-8yrgnb" rx="19.000000" width="38.000000" height="38.000000" transform="translate(-0.339966 0.000000)" fill="white" fill-opacity="0"/>
		</clipPath>
		<linearGradient id="paint_linear_296_140_0" x1="18.660034" y1="0.000000" x2="18.660034" y2="38.000000" gradientUnits="userSpaceOnUse">
			<stop stop-color="#2F292B"/>
			<stop offset="1.000000" stop-color="#040102"/>
		</linearGradient>
	</defs>
	<rect id="div.framer-8yrgnb" rx="19.000000" width="38.000000" height="38.000000" transform="translate(-0.339966 0.000000)" fill="url(#paint_linear_296_140_0)" fill-opacity="1.000000"/>
	<g clip-path="url(#clip296_140)">
		<g clip-path="url(#clip296_141)">
			<path id="Vector" d="M25.41 10.75L22.41 10.75C22.41 10.35 22.25 9.97 21.97 9.68C21.68 9.4 21.3 9.25 20.91 9.25L9.66 9.25C9.26 9.25 8.88 9.4 8.59 9.68C8.31 9.97 8.16 10.35 8.16 10.75L8.16 18.25C8.16 18.64 8.31 19.02 8.59 19.31C8.88 19.59 9.26 19.75 9.66 19.75L10.41 19.75L10.41 25.75C10.41 26.14 10.56 26.52 10.84 26.81C11.13 27.09 11.51 27.25 11.91 27.25L25.41 27.25C25.8 27.25 26.18 27.09 26.47 26.81C26.75 26.52 26.91 26.14 26.91 25.75L26.91 12.25C26.91 11.85 26.75 11.47 26.47 11.18C26.18 10.9 25.8 10.75 25.41 10.75ZM16.62 12.78C16.48 12.64 16.4 12.44 16.4 12.25C16.4 12.05 16.48 11.85 16.62 11.71C16.77 11.57 16.96 11.49 17.16 11.49C17.35 11.49 17.54 11.57 17.69 11.71L19.94 13.96C20.01 14.03 20.06 14.12 20.1 14.21C20.14 14.3 20.16 14.4 20.16 14.5C20.16 14.59 20.14 14.69 20.1 14.78C20.06 14.87 20.01 14.96 19.94 15.03L17.69 17.28C17.54 17.42 17.35 17.5 17.16 17.5C16.96 17.5 16.77 17.42 16.62 17.28C16.48 17.14 16.4 16.94 16.4 16.75C16.4 16.55 16.48 16.35 16.62 16.21L18.34 14.5L16.62 12.78ZM10.62 15.03C10.55 14.96 10.5 14.87 10.46 14.78C10.42 14.69 10.4 14.59 10.4 14.5C10.4 14.4 10.42 14.3 10.46 14.21C10.5 14.12 10.55 14.03 10.62 13.96L12.87 11.71C13.02 11.57 13.21 11.49 13.41 11.49C13.6 11.49 13.79 11.57 13.94 11.71C14.08 11.85 14.16 12.05 14.16 12.25C14.16 12.44 14.08 12.64 13.94 12.78L12.22 14.5L13.94 16.21C14.08 16.35 14.16 16.55 14.16 16.75C14.16 16.94 14.08 17.14 13.94 17.28C13.79 17.42 13.6 17.5 13.41 17.5C13.21 17.5 13.02 17.42 12.87 17.28L10.62 15.03ZM25.41 25.75L11.91 25.75L11.91 19.75L20.91 19.75C21.3 19.75 21.68 19.59 21.97 19.31C22.25 19.02 22.41 18.64 22.41 18.25L22.41 12.25L25.41 12.25L25.41 25.75Z" fill="#FFFFFF" fill-opacity="0.750000" fill-rule="nonzero"/>
		</g>
	</g>
</svg>
