<svg width="30.000000" height="30.000000" viewBox="0 0 30 30" fill="none" xmlns="http://www.w3.org/2000/svg" xmlns:xlink="http://www.w3.org/1999/xlink">
	<desc>
			Created with Pixso.
	</desc>
	<defs>
		<clipPath id="clip81_792">
			<rect id="svg" width="30.000000" height="30.000000" fill="white" fill-opacity="0"/>
		</clipPath>
	</defs>
	<g clip-path="url(#clip81_792)">
		<path id="path" d="M8.85 7.74L8.87 7.76C8.87 8.18 8.54 8.51 8.12 8.51C7.7 8.51 7.37 8.18 7.37 7.76L7.39 7.74L8.85 7.74ZM22.21 22.6L22.19 22.62C21.77 22.62 21.44 22.29 21.44 21.87C21.44 21.45 21.77 21.12 22.19 21.12L22.21 21.14L22.21 22.6Z" fill="#000000" fill-opacity="0" fill-rule="nonzero"/>
		<path id="path" d="M8.12 7.76L8.12 4.88C8.12 3.91 8.91 3.12 9.88 3.12L25.11 3.12C26.08 3.12 26.87 3.91 26.87 4.88L26.87 20.11C26.87 21.08 26.08 21.87 25.11 21.87L22.19 21.87" stroke="#FFFFFF" stroke-opacity="1.000000" stroke-width="1.500000" stroke-linejoin="round" stroke-linecap="round"/>
		<path id="path" d="M20.11 8.12L4.88 8.12C3.91 8.12 3.12 8.91 3.12 9.88L3.12 25.11C3.12 26.08 3.91 26.87 4.88 26.87L20.11 26.87C21.08 26.87 21.87 26.08 21.87 25.11L21.87 9.88C21.87 8.91 21.08 8.12 20.11 8.12Z" fill="#000000" fill-opacity="0" fill-rule="nonzero"/>
		<path id="path" d="M4.88 8.12C3.91 8.12 3.12 8.91 3.12 9.88L3.12 25.11C3.12 26.08 3.91 26.87 4.88 26.87L20.11 26.87C21.08 26.87 21.87 26.08 21.87 25.11L21.87 9.88C21.87 8.91 21.08 8.12 20.11 8.12L4.88 8.12Z" stroke="#FFFFFF" stroke-opacity="1.000000" stroke-width="1.500000" stroke-linejoin="round"/>
	</g>
</svg>
