<svg width="32.000000" height="32.000000" viewBox="0 0 32 32" fill="none" xmlns="http://www.w3.org/2000/svg" xmlns:xlink="http://www.w3.org/1999/xlink">
	<desc>
			Created with Pixso.
	</desc>
	<defs>
		<clipPath id="clip63_759">
			<rect id="分享" width="32.000000" height="32.000000" fill="white" fill-opacity="0"/>
		</clipPath>
	</defs>
	<g clip-path="url(#clip63_759)">
		<path id="path" d="M18.02 7.72L18 7.75C17.58 7.75 17.25 7.41 17.25 7C17.25 6.58 17.58 6.25 18 6.25L18.02 6.27L18.02 7.72ZM25.73 13.98L25.75 14C25.75 14.41 25.41 14.75 25 14.75C24.58 14.75 24.25 14.41 24.25 14L24.27 13.98L25.73 13.98Z" fill="#000000" fill-opacity="0" fill-rule="nonzero"/>
		<path id="path" d="M18 7L25 7L25 14" stroke="#FFFFFF" stroke-opacity="1.000000" stroke-width="1.500000" stroke-linejoin="round" stroke-linecap="round"/>
		<path id="path" d="M25 18.73L25 23.5C25 24.32 24.32 25 23.5 25L8.5 25C7.67 25 7 24.32 7 23.5L7 8.5C7 7.67 7.67 7 8.5 7L13 7" stroke="#FFFFFF" stroke-opacity="1.000000" stroke-width="1.500000" stroke-linejoin="round" stroke-linecap="round"/>
		<path id="path" d="M17.43 15.6L17.43 15.63C17.13 15.92 16.66 15.92 16.36 15.63C16.07 15.33 16.07 14.86 16.36 14.56L16.39 14.56L17.43 15.6ZM24.01 6.94L24.01 6.91C24.31 6.62 24.78 6.62 25.08 6.91C25.37 7.21 25.37 7.68 25.08 7.98L25.05 7.98L24.01 6.94Z" fill="#000000" fill-opacity="0" fill-rule="nonzero"/>
		<path id="path" d="M16.89 15.1L24.54 7.45" stroke="#FFFFFF" stroke-opacity="1.000000" stroke-width="1.500000" stroke-linejoin="round" stroke-linecap="round"/>
	</g>
</svg>
