<svg width="28.000000" height="28.000000" viewBox="0 0 28 28" fill="none" xmlns="http://www.w3.org/2000/svg" xmlns:xlink="http://www.w3.org/1999/xlink">
	<desc>
			Created with Pixso.
	</desc>
	<defs>
		<clipPath id="clip63_274">
			<rect id="svg" width="18.000000" height="18.000000" transform="translate(5.000000 5.000000)" fill="white" fill-opacity="0"/>
		</clipPath>
	</defs>
	<rect id="矩形 62" rx="8.000000" width="28.000000" height="28.000000" fill="#E43B57" fill-opacity="1.000000"/>
	<g clip-path="url(#clip63_274)">
		<path id="path" d="M9.52 14.73L9.5 14.75C9.08 14.75 8.75 14.42 8.75 14C8.75 13.58 9.08 13.25 9.5 13.25L9.52 13.27L9.52 14.73ZM18.48 13.27L18.5 13.25C18.92 13.25 19.25 13.58 19.25 14C19.25 14.42 18.92 14.75 18.5 14.75L18.48 14.73L18.48 13.27Z" fill="#000000" fill-opacity="0" fill-rule="nonzero"/>
		<path id="path" d="M9.5 14L18.5 14" stroke="#FFFFFF" stroke-opacity="1.000000" stroke-width="1.500000" stroke-linejoin="round" stroke-linecap="round"/>
		<path id="path" d="M13.49 10.03L13.46 10.03C13.17 9.73 13.17 9.26 13.46 8.96C13.76 8.67 14.23 8.67 14.53 8.96L14.53 8.99L13.49 10.03ZM14.53 19L14.53 19.03C14.23 19.32 13.76 19.32 13.46 19.03C13.17 18.73 13.17 18.26 13.46 17.96L13.49 17.96L14.53 19Z" fill="#000000" fill-opacity="0" fill-rule="nonzero"/>
		<path id="path" d="M14 9.5L18.5 14L14 18.5" stroke="#FFFFFF" stroke-opacity="1.000000" stroke-width="1.500000" stroke-linejoin="round" stroke-linecap="round"/>
	</g>
</svg>
