<svg width="32.000000" height="32.000000" viewBox="0 0 32 32" fill="none" xmlns="http://www.w3.org/2000/svg" xmlns:xlink="http://www.w3.org/1999/xlink">
	<desc>
			Created with Pixso.
	</desc>
	<defs>
		<clipPath id="clip681_145">
			<rect id="Vizing_Profile" rx="16.000000" width="32.000000" height="32.000000" fill="white" fill-opacity="0"/>
		</clipPath>
	</defs>
	<g clip-path="url(#clip681_145)">
		<rect id="rect" width="32.000000" height="32.000000" fill="#FFFFFF" fill-opacity="1.000000"/>
		<path id="path" d="M10.43 24.09C12.01 25.19 13.94 25.83 16.01 25.83C21.15 25.83 25.37 21.88 25.81 16.86C23.92 18.26 21.31 19.78 18.32 21.18C15.43 22.52 12.67 23.52 10.43 24.09Z" fill="#000000" fill-opacity="1.000000" fill-rule="evenodd"/>
		<path id="path" d="M24.93 11.85C24.11 12 23.19 12.24 22.19 12.54C21.98 12.15 21.72 11.78 21.44 11.44C20.33 10.12 18.83 9.3 17.24 9.02C15.54 8.72 13.87 9.06 12.47 9.86C10.97 10.73 9.91 12.06 9.36 13.57C8.77 15.2 8.81 16.91 9.36 18.42C9.38 18.46 9.39 18.51 9.41 18.55C8.54 19.13 7.77 19.7 7.14 20.24C6.52 18.95 6.18 17.51 6.18 16C6.18 10.57 10.59 6.16 16.01 6.16C19.96 6.16 23.37 8.49 24.93 11.85Z" fill="#000000" fill-opacity="1.000000" fill-rule="evenodd"/>
		<path id="path" d="M17.99 11.25C17.63 11.25 17.33 11.54 17.33 11.9C17.33 12.18 17.51 12.42 17.76 12.51C17.77 12.73 17.76 12.94 17.72 13.15C17.64 13.61 17.45 14.02 17.19 14.36C17.45 14.25 17.7 14.14 17.96 14.03C18.07 13.78 18.16 13.51 18.2 13.24C18.25 12.99 18.26 12.74 18.25 12.5C18.48 12.4 18.65 12.17 18.65 11.9C18.65 11.54 18.35 11.25 17.99 11.25ZM13.73 16C13.98 15.87 14.23 15.75 14.48 15.62C14.09 15.61 13.72 15.51 13.38 15.34C13.13 15.22 12.91 15.07 12.71 14.89C12.73 14.83 12.74 14.76 12.74 14.69C12.74 14.33 12.45 14.03 12.09 14.03C11.73 14.03 11.43 14.33 11.43 14.69C11.43 15.05 11.73 15.34 12.09 15.34C12.2 15.34 12.3 15.32 12.4 15.27C12.63 15.48 12.89 15.65 13.16 15.79C13.35 15.88 13.54 15.95 13.73 16Z" fill="#000000" fill-opacity="1.000000" fill-rule="evenodd"/>
		<path id="path" d="M4.94 23.46C4.23 21.95 8.98 18.24 15.54 15.18C22.11 12.12 28 10.86 28.71 12.37C29.41 13.89 24.66 17.6 18.1 20.66C11.54 23.72 5.64 24.97 4.94 23.46Z" fill="#BB2C2C" fill-opacity="1.000000" fill-rule="evenodd"/>
	</g>
</svg>
