<svg width="29.171875" height="23.999756" viewBox="0 0 29.1719 23.9998" fill="none" xmlns="http://www.w3.org/2000/svg" xmlns:xlink="http://www.w3.org/1999/xlink">
	<desc>
			Created with Pixso.
	</desc>
	<defs/>
	<path id="减去顶层" d="M6.78 21.87C8.71 23.21 11.06 23.99 13.59 23.99C19.86 23.99 25.01 19.18 25.55 13.05C23.24 14.75 20.05 16.62 16.4 18.32C12.88 19.96 9.51 21.18 6.78 21.87Z" fill="#FFFFFF" fill-opacity="1.000000" fill-rule="evenodd"/>
	<path id="减去顶层" d="M24.48 6.93C23.47 7.13 22.35 7.41 21.14 7.78C20.87 7.3 20.56 6.86 20.21 6.44C18.86 4.82 17.03 3.83 15.1 3.49C13.02 3.12 10.98 3.53 9.28 4.51C7.45 5.57 6.15 7.2 5.48 9.04C4.75 11.03 4.81 13.11 5.48 14.95C5.5 15.01 5.52 15.06 5.54 15.12C4.48 15.82 3.54 16.52 2.77 17.17C2.02 15.6 1.6 13.85 1.6 12C1.6 5.37 6.97 0 13.6 0C18.41 0 22.57 2.84 24.48 6.93Z" fill="#FFFFFF" fill-opacity="1.000000" fill-rule="evenodd"/>
	<path id="减去顶层" d="M16.01 6.2C15.57 6.2 15.21 6.56 15.21 7C15.21 7.34 15.42 7.63 15.72 7.75C15.74 8.01 15.72 8.27 15.68 8.53C15.58 9.08 15.35 9.58 15.03 10C15.34 9.86 15.66 9.73 15.97 9.6C16.11 9.29 16.21 8.96 16.27 8.63C16.32 8.33 16.34 8.03 16.32 7.74C16.61 7.61 16.81 7.33 16.81 7C16.81 6.56 16.45 6.2 16.01 6.2ZM10.81 12C11.11 11.85 11.41 11.69 11.72 11.54C11.25 11.52 10.79 11.4 10.38 11.2C10.08 11.05 9.81 10.87 9.57 10.65C9.59 10.57 9.61 10.49 9.61 10.4C9.61 9.96 9.25 9.6 8.81 9.6C8.37 9.6 8.01 9.96 8.01 10.4C8.01 10.84 8.37 11.2 8.81 11.2C8.94 11.2 9.07 11.17 9.18 11.11C9.47 11.37 9.78 11.58 10.12 11.74C10.35 11.85 10.58 11.94 10.81 12Z" fill="#FFFFFF" fill-opacity="1.000000" fill-rule="evenodd"/>
	<path id="矢量 15" d="M0.08 21.1C-0.78 19.26 5.01 14.73 13.02 11C21.03 7.26 28.22 5.73 29.08 7.58C29.94 9.43 24.15 13.95 16.14 17.68C8.13 21.42 0.94 22.95 0.08 21.1Z" fill="#FFFFFF" fill-opacity="1.000000" fill-rule="evenodd"/>
</svg>
