<svg width="29.000000" height="32.000000" viewBox="0 0 29 32" fill="none" xmlns="http://www.w3.org/2000/svg" xmlns:xlink="http://www.w3.org/1999/xlink">
	<desc>
			Created with Pixso.
	</desc>
	<defs/>
	<path id="Vector" d="M-0.25 31.5C-0.75 31.25 -1 30.62 -1 30C-1 29.87 -1 29.62 -1 29.5C-1 20.25 -1 11 -1 1.87C-1 1.37 -0.88 1 -0.75 0.5C-0.63 0.25 -0.38 0 -0.13 -0.25C5.25 5.12 10.51 10.5 15.77 15.87C10.38 20.87 5.13 26.12 -0.25 31.5Z" fill="#FFFFFF" fill-opacity="1.000000" fill-rule="nonzero"/>
	<path id="Vector" d="M21.02 10.37C19.52 11.87 17.89 13.37 16.39 15C11.38 9.87 6.25 4.75 1.25 -0.38C1.25 -0.38 1.25 -0.5 1.37 -0.5C7.88 3.12 14.39 6.75 21.02 10.37Z" fill="#FFFFFF" fill-opacity="1.000000" fill-rule="nonzero"/>
	<path id="Vector" d="M1.25 31.5C6.25 26.5 11.38 21.5 16.39 16.5C17.77 17.87 19.27 19.25 20.9 20.75C14.39 24.37 7.88 28 1.37 31.5L1.25 31.5Z" fill="#FFFFFF" fill-opacity="1.000000" fill-rule="nonzero"/>
	<path id="Vector" d="M21.77 20.25C20.15 18.75 18.64 17.25 17.02 15.75C18.64 14.12 20.27 12.5 21.9 10.87C22.4 11.12 22.9 11.37 23.4 11.75C24.65 12.5 26.03 13.12 27.28 13.87C27.65 14 27.9 14.25 28.15 14.62C28.66 15.25 28.66 15.87 28.15 16.5C27.9 16.75 27.65 17 27.28 17.12C25.53 18.25 23.65 19.25 21.77 20.25Z" fill="#FFFFFF" fill-opacity="1.000000" fill-rule="nonzero"/>
</svg>
