<svg width="40.000000" height="40.000000" viewBox="0 0 40 40" fill="none" xmlns="http://www.w3.org/2000/svg" xmlns:xlink="http://www.w3.org/1999/xlink">
	<desc>
			Created with Pixso.
	</desc>
	<defs>
		<clipPath id="clip402_171">
			<rect id="APK" width="40.000000" height="40.000000" fill="white" fill-opacity="0"/>
		</clipPath>
	</defs>
	<g clip-path="url(#clip402_171)">
		<rect id="Icon/Fill/AndroidLogo" width="36.000000" height="36.000000" transform="translate(2.000000 2.000000)" fill="#FFFFFF" fill-opacity="0"/>
		<path id="Vector" d="M31.12 14.47L30.8 14.16L34.3 10.67C34.48 10.45 34.57 10.18 34.55 9.89C34.54 9.61 34.42 9.34 34.22 9.14C34.02 8.94 33.75 8.83 33.47 8.81C33.19 8.8 32.91 8.89 32.69 9.07L29.05 12.72C26.4 10.86 23.24 9.86 20 9.87C16.77 9.87 13.61 10.88 10.97 12.75L7.3 9.07C7.08 8.89 6.8 8.8 6.52 8.81C6.24 8.83 5.97 8.94 5.77 9.14C5.57 9.34 5.45 9.61 5.44 9.89C5.42 10.18 5.51 10.45 5.69 10.67L9.22 14.19C7.65 15.68 6.4 17.48 5.54 19.47C4.68 21.46 4.24 23.61 4.25 25.77L4.25 29C4.25 29.59 4.48 30.16 4.9 30.59C5.33 31.01 5.9 31.25 6.5 31.25L33.5 31.25C34.09 31.25 34.66 31.01 35.09 30.59C35.51 30.16 35.75 29.59 35.75 29L35.75 25.62C35.75 23.55 35.35 21.49 34.55 19.58C33.76 17.67 32.59 15.93 31.12 14.47ZM14.93 25.62C14.6 25.62 14.27 25.52 14 25.34C13.72 25.15 13.5 24.89 13.37 24.58C13.25 24.27 13.21 23.93 13.28 23.6C13.34 23.28 13.5 22.98 13.74 22.74C13.98 22.5 14.28 22.34 14.6 22.28C14.93 22.21 15.27 22.25 15.58 22.37C15.89 22.5 16.15 22.72 16.34 23C16.52 23.27 16.62 23.6 16.62 23.93C16.62 24.38 16.44 24.81 16.13 25.13C15.81 25.44 15.38 25.62 14.93 25.62ZM25.06 25.62C24.72 25.62 24.4 25.52 24.12 25.34C23.84 25.15 23.63 24.89 23.5 24.58C23.37 24.27 23.34 23.93 23.4 23.6C23.47 23.28 23.63 22.98 23.86 22.74C24.1 22.5 24.4 22.34 24.73 22.28C25.06 22.21 25.39 22.25 25.7 22.37C26.01 22.5 26.28 22.72 26.46 23C26.65 23.27 26.75 23.6 26.75 23.93C26.75 24.38 26.57 24.81 26.25 25.13C25.93 25.44 25.51 25.62 25.06 25.62Z" fill="#FFFFFF" fill-opacity="1.000000" fill-rule="nonzero"/>
	</g>
</svg>
