<svg width="40.000000" height="40.000000" viewBox="0 0 40 40" fill="none" xmlns="http://www.w3.org/2000/svg">
	<desc>
			Created with Pixso.
	</desc>
	<defs>
		<clipPath id="clip402_150">
			<rect id="Frame 25" width="40.000000" height="40.000000" fill="white" fill-opacity="0"/>
		</clipPath>
	</defs>
	<g clip-path="url(#clip402_150)">
		<path id="Vector" d="M25.83 4C26.05 5.89 25.28 7.75 24.16 9.12C22.98 10.47 21.11 11.51 19.28 11.37C19.05 9.55 19.97 7.62 21.01 6.43C22.18 5.09 24.21 4.07 25.83 4ZM31.81 14.91C31.61 15.03 28.23 17 28.27 21.01C28.31 25.86 32.61 27.46 32.66 27.48C32.64 27.59 31.99 29.79 30.38 32.02C29.03 33.99 27.62 35.91 25.38 35.94C24.31 35.97 23.59 35.67 22.84 35.36C22.06 35.03 21.25 34.69 19.97 34.69C17.45 34.69 16.67 35.91 14.59 35.99C12.45 36.07 10.82 33.89 9.43 31.95C6.64 27.97 4.47 20.74 7.38 15.82C8.79 13.4 11.36 11.85 14.11 11.81C15.32 11.78 16.48 12.24 17.5 12.64C18.28 12.94 18.97 13.22 19.54 13.22C20.04 13.22 20.72 12.96 21.5 12.65C22.74 12.17 24.26 11.58 25.81 11.74C26.86 11.77 29.87 12.15 31.82 14.91L31.81 14.91Z" fill="#FFFFFF" fill-opacity="1.000000" fill-rule="evenodd"/>
	</g>
</svg>
