<svg width="414.000000" height="246.000000" viewBox="0 0 414 246" fill="none" xmlns="http://www.w3.org/2000/svg" xmlns:xlink="http://www.w3.org/1999/xlink">
	<desc>
			Created with Pixso.
	</desc>
	<defs>
		<filter id="filter_2843_988_dd" x="177.000000" y="88.000000" width="60.000000" height="70.000000" filterUnits="userSpaceOnUse" color-interpolation-filters="sRGB">
			<feFlood flood-opacity="0" result="BackgroundImageFix"/>
			<feColorMatrix in="SourceAlpha" type="matrix" values="0 0 0 0 0 0 0 0 0 0 0 0 0 0 0 0 0 0 127 0" result="hardAlpha"/>
			<feOffset dx="0" dy="0"/>
			<feGaussianBlur stdDeviation="2.66667"/>
			<feComposite in2="hardAlpha" operator="out" k2="-1" k3="1"/>
			<feColorMatrix type="matrix" values="0 0 0 0 1 0 0 0 0 0.45882 0 0 0 0 0.54902 0 0 0 1 0"/>
			<feBlend mode="normal" in2="BackgroundImageFix" result="effect_dropShadow_1"/>
			<feBlend mode="normal" in="SourceGraphic" in2="effect_dropShadow_1" result="shape"/>
		</filter>
		<filter id="filter_2843_991_dd" x="199.000000" y="113.000000" width="16.000000" height="21.000000" filterUnits="userSpaceOnUse" color-interpolation-filters="sRGB">
			<feFlood flood-opacity="0" result="BackgroundImageFix"/>
			<feColorMatrix in="SourceAlpha" type="matrix" values="0 0 0 0 0 0 0 0 0 0 0 0 0 0 0 0 0 0 127 0" result="hardAlpha"/>
			<feOffset dx="0" dy="0"/>
			<feGaussianBlur stdDeviation="1.33333"/>
			<feComposite in2="hardAlpha" operator="out" k2="-1" k3="1"/>
			<feColorMatrix type="matrix" values="0 0 0 0 1 0 0 0 0 1 0 0 0 0 1 0 0 0 0.49 0"/>
			<feBlend mode="normal" in2="BackgroundImageFix" result="effect_dropShadow_1"/>
			<feBlend mode="normal" in="SourceGraphic" in2="effect_dropShadow_1" result="shape"/>
		</filter>
		<clipPath id="clip2843_993">
			<rect id="Frame 14" width="414.000000" height="246.000000" fill="white" fill-opacity="0"/>
		</clipPath>
		<linearGradient x1="341.500031" y1="113.499954" x2="68.499985" y2="111.000031" id="paint_linear_2843_983_0" gradientUnits="userSpaceOnUse">
			<stop stop-color="#F23F5D"/>
			<stop offset="0.363170" stop-color="#44171F" stop-opacity="0.000000"/>
			<stop offset="0.652625" stop-color="#0E0B0C" stop-opacity="0.000000"/>
			<stop offset="0.977840" stop-color="#F23F5D"/>
		</linearGradient>
		<linearGradient x1="207.000000" y1="38.000000" x2="207.000000" y2="244.956512" id="paint_linear_2843_985_0" gradientUnits="userSpaceOnUse">
			<stop stop-color="#F23F5D" stop-opacity="0.400000"/>
			<stop offset="1.000000" stop-color="#040102" stop-opacity="0.301961"/>
		</linearGradient>
		<linearGradient x1="207.000015" y1="38.000000" x2="207.000015" y2="220.010864" id="paint_linear_2843_985_1" gradientUnits="userSpaceOnUse">
			<stop stop-color="#F23F5D"/>
			<stop offset="1.000000" stop-color="#8C2436" stop-opacity="0.560784"/>
		</linearGradient>
		<linearGradient x1="207.000000" y1="59.000000" x2="207.000000" y2="214.826080" id="paint_linear_2843_986_0" gradientUnits="userSpaceOnUse">
			<stop stop-color="#F23F5D" stop-opacity="0.400000"/>
			<stop offset="1.000000" stop-color="#040102" stop-opacity="0.301961"/>
		</linearGradient>
		<linearGradient x1="207.000000" y1="59.000000" x2="207.000000" y2="196.043472" id="paint_linear_2843_986_1" gradientUnits="userSpaceOnUse">
			<stop stop-color="#F23F5D"/>
			<stop offset="1.000000" stop-color="#8C2436" stop-opacity="0.560784"/>
		</linearGradient>
		<linearGradient x1="207.000000" y1="77.000000" x2="207.000000" y2="189.000000" id="paint_linear_2843_987_0" gradientUnits="userSpaceOnUse">
			<stop stop-color="#F23F5D" stop-opacity="0.400000"/>
			<stop offset="1.000000" stop-color="#040102" stop-opacity="0.301961"/>
		</linearGradient>
		<linearGradient x1="207.000000" y1="77.000000" x2="207.000000" y2="175.500000" id="paint_linear_2843_987_1" gradientUnits="userSpaceOnUse">
			<stop stop-color="#F23F5D"/>
			<stop offset="1.000000" stop-color="#8C2436" stop-opacity="0.560784"/>
		</linearGradient>
		<linearGradient x1="207.000000" y1="83.500000" x2="207.000000" y2="150.000000" id="paint_linear_2843_988_0" gradientUnits="userSpaceOnUse">
			<stop stop-color="#FF8196"/>
			<stop offset="0.950959" stop-color="#F23F5D"/>
		</linearGradient>
	</defs>
	<g clip-path="url(#clip2843_993)">
		<g opacity="0.400000">
			<path id="Union" d="M0 25L54.9143 25L92.9143 63L264.086 63L299.586 27.5L414 27.5L414 29.5L300.414 29.5L264.914 65L92.0857 65L54.0857 27L0 27L0 25ZM0 38L32.9761 38L46.5 54.6445L46.5 73.5859L61.9143 89L263.086 89L268.586 83.5L303.086 83.5L319 67.5859L319 50.0859L331.086 38L395 38L395 40L331.914 40L321 50.9141L321 68.4141L303.914 85.5L269.414 85.5L263.914 91L62 91L62.207 91.207L36.9143 116.5L0 116.5L0 114.5L36.0857 114.5L60.3357 90.25L44.5 74.4141L44.5 55.3555L32.0239 40L0 40L0 38ZM0 152.5L33.0857 152.5L65.0857 120.5L108.586 120.5L126.086 103L291.914 103L307.914 119L327.586 119L361.086 85.5L414 85.5L414 87.5L361.914 87.5L328.414 121L307.086 121L291.086 105L126.914 105L109.414 122.5L65.9143 122.5L34.5 153.914L34.5 211.5L32.5 211.5L32.5 154.5L0 154.5L0 152.5ZM72.293 216.293L95.5 193.086L95.5 153.086L130.586 118L245.914 118L288.414 160.5L319.414 160.5L336.414 177.5L414 177.5L414 179.5L366.5 179.5L366.5 221.5L364.5 221.5L364.5 179.5L335.586 179.5L318.586 162.5L287.586 162.5L245.086 120L131.414 120L97.5 153.914L97.5 193.914L73.707 217.707L72.293 216.293Z" clip-rule="evenodd" fill="url(#paint_linear_2843_983_0)" fill-opacity="1.000000" fill-rule="evenodd"/>
		</g>
		<path id="Rectangle 18" d="M143 67.82L145.48 67.82C162.59 67.82 179.15 61.72 192.18 50.62L207 38L221.81 50.62C234.84 61.72 251.4 67.82 268.51 67.82L271 67.82C274.31 67.82 277 70.51 277 73.82L277 141.35C277 155 270.04 167.71 258.54 175.06L209.15 206.62C207.84 207.46 206.15 207.46 204.84 206.62L155.45 175.06C143.95 167.71 137 155 137 141.35L137 73.82C137 70.51 139.68 67.82 143 67.82Z" fill="url(#paint_linear_2843_985_0)" fill-opacity="1.000000" fill-rule="nonzero"/>
		<path id="Rectangle 18" d="M143 67.82L145.48 67.82C162.59 67.82 179.15 61.72 192.18 50.62L207 38L221.81 50.62C234.84 61.72 251.4 67.82 268.51 67.82L271 67.82C274.31 67.82 277 70.51 277 73.82L277 141.35C277 155 270.04 167.71 258.54 175.06L209.15 206.62C207.84 207.46 206.15 207.46 204.84 206.62L155.45 175.06C143.95 167.71 137 155 137 141.35L137 73.82C137 70.51 139.68 67.82 143 67.82ZM207 39.31L221.16 51.38C227.99 57.2 235.34 61.55 243.23 64.46C251.12 67.37 259.55 68.82 268.51 68.82L271 68.82C271.69 68.82 272.32 68.94 272.91 69.19C273.5 69.43 274.04 69.8 274.53 70.28C275.02 70.77 275.39 71.31 275.63 71.9C275.87 72.49 276 73.13 276 73.82L276 141.35C276 144.68 275.6 147.9 274.8 151.03C274 154.15 272.8 157.17 271.2 160.09C269.6 163 267.7 165.64 265.5 168C263.3 170.35 260.8 172.42 258 174.21L208.61 205.78C208.07 206.12 207.53 206.29 207 206.29C206.46 206.29 205.92 206.12 205.38 205.78L155.99 174.21C153.19 172.42 150.69 170.35 148.49 167.99C146.29 165.64 144.39 163 142.79 160.09C141.19 157.17 139.99 154.15 139.19 151.02C138.39 147.9 138 144.68 138 141.35L138 73.82C138 73.13 138.12 72.49 138.36 71.9C138.61 71.31 138.97 70.77 139.46 70.28C139.95 69.8 140.49 69.43 141.08 69.19C141.67 68.94 142.31 68.82 143 68.82L145.48 68.82C154.44 68.82 162.87 67.37 170.76 64.46C178.65 61.55 186.01 57.2 192.83 51.38L207 39.31Z" fill="url(#paint_linear_2843_985_1)" fill-opacity="0.300000" fill-rule="evenodd"/>
		<path id="Rectangle 17" d="M154 84.94C154 83.01 155.56 81.45 157.48 81.45C172.34 81.45 186.72 76.18 198.05 66.57L207 59L215.94 66.57C227.27 76.18 241.65 81.45 256.51 81.45C258.43 81.45 260 83.01 260 84.94L260 131.34C260 145.02 253 157.76 241.45 165.1L209.14 185.63C207.83 186.46 206.16 186.46 204.85 185.63L172.54 165.1C160.99 157.76 154 145.02 154 131.34L154 84.94Z" fill="url(#paint_linear_2843_986_0)" fill-opacity="1.000000" fill-rule="nonzero"/>
		<path id="Rectangle 17" d="M154 84.94C154 83.01 155.56 81.45 157.48 81.45C172.34 81.45 186.72 76.18 198.05 66.57L207 59L215.94 66.57C227.27 76.18 241.65 81.45 256.51 81.45C258.43 81.45 260 83.01 260 84.94L260 131.34C260 145.02 253 157.76 241.45 165.1L209.14 185.63C207.83 186.46 206.16 186.46 204.85 185.63L172.54 165.1C160.99 157.76 154 145.02 154 131.34L154 84.94ZM207 60.31L215.29 67.34C221.24 72.37 227.65 76.15 234.51 78.67C241.38 81.19 248.72 82.45 256.51 82.45C257.34 82.45 257.96 82.66 258.37 83.07C258.79 83.49 259 84.11 259 84.94L259 131.34C259 134.67 258.59 137.91 257.79 141.03C256.99 144.17 255.78 147.19 254.18 150.12C252.57 153.04 250.66 155.68 248.45 158.03C246.24 160.39 243.73 162.46 240.91 164.25L208.6 184.79C208.07 185.13 207.53 185.3 207 185.3C206.46 185.3 205.92 185.13 205.39 184.79L173.08 164.25C170.26 162.46 167.75 160.39 165.54 158.03C163.33 155.68 161.42 153.04 159.81 150.12C158.21 147.19 157 144.17 156.2 141.03C155.4 137.91 155 134.67 155 131.34L155 84.94C155 84.59 155.06 84.28 155.18 83.98C155.3 83.69 155.48 83.42 155.72 83.18C155.97 82.94 156.23 82.75 156.53 82.63C156.82 82.51 157.14 82.45 157.48 82.45C165.28 82.45 172.61 81.19 179.48 78.67C186.35 76.15 192.75 72.37 198.7 67.34L207 60.31Z" fill="url(#paint_linear_2843_986_1)" fill-opacity="0.300000" fill-rule="evenodd"/>
		<path id="Rectangle 15" d="M169 94.47C169 93.73 169.59 93.14 170.33 93.14C181.73 93.14 192.77 89.08 201.46 81.7L207 77L212.53 81.7C221.22 89.08 232.26 93.14 243.66 93.14C244.4 93.14 245 93.73 245 94.47L245 122.84C245 136.51 238.02 149.23 226.49 156.58L209.14 167.63C207.83 168.46 206.16 168.46 204.85 167.63L187.5 156.58C175.97 149.23 169 136.51 169 122.84L169 94.47Z" fill="url(#paint_linear_2843_987_0)" fill-opacity="1.000000" fill-rule="nonzero"/>
		<path id="Rectangle 15" d="M169 94.47C169 93.73 169.59 93.14 170.33 93.14C181.73 93.14 192.77 89.08 201.46 81.7L207 77L212.53 81.7C221.22 89.08 232.26 93.14 243.66 93.14C244.4 93.14 245 93.73 245 94.47L245 122.84C245 136.51 238.02 149.23 226.49 156.58L209.14 167.63C207.83 168.46 206.16 168.46 204.85 167.63L187.5 156.58C175.97 149.23 169 136.51 169 122.84L169 94.47ZM207 78.31L211.89 82.46C216.47 86.35 221.4 89.27 226.7 91.22C232 93.16 237.65 94.14 243.66 94.14C243.77 94.14 243.86 94.16 243.91 94.22C243.97 94.28 244 94.36 244 94.47L244 122.84C244 126.17 243.59 129.4 242.79 132.53C241.99 135.65 240.79 138.68 239.19 141.6C237.59 144.52 235.68 147.16 233.48 149.51C231.27 151.87 228.76 153.94 225.95 155.73L208.61 166.78C208.07 167.13 207.53 167.3 207 167.3C206.46 167.3 205.92 167.13 205.38 166.78L188.04 155.73C185.23 153.94 182.72 151.87 180.52 149.51C178.31 147.16 176.41 144.52 174.8 141.6C173.2 138.68 172 135.65 171.2 132.53C170.4 129.4 170 126.17 170 122.84L170 94.47C170 94.42 170 94.38 170.02 94.34C170.04 94.3 170.06 94.27 170.09 94.23C170.13 94.2 170.16 94.18 170.2 94.16C170.24 94.14 170.28 94.14 170.33 94.14C176.34 94.14 181.99 93.16 187.29 91.22C192.59 89.27 197.52 86.35 202.11 82.46L207 78.31Z" fill="url(#paint_linear_2843_987_1)" fill-opacity="0.300000" fill-rule="evenodd"/>
		<g filter="url(#filter_2843_988_dd)">
			<path id="Rectangle 16" d="M185 105.47C192.09 105.47 198.95 102.92 204.33 98.29L207 96L209.66 98.29C215.04 102.92 221.9 105.47 229 105.47L229 122.72C229 130.86 224.86 138.46 218.02 142.88L207 150L195.97 142.88C189.13 138.46 185 130.86 185 122.72L185 105.47Z" fill="url(#paint_linear_2843_988_0)" fill-opacity="1.000000" fill-rule="nonzero"/>
			<path id="Rectangle 16" d="M228 106.45L228 122.72C228 126.89 227.12 130.59 225.37 133.81C223.61 137.03 220.98 139.77 217.47 142.03L207 148.81L196.52 142.03C193.01 139.77 190.38 137.03 188.63 133.81C186.87 130.59 186 126.89 186 122.72L186 106.45C189.41 106.35 192.64 105.74 195.68 104.61C199.01 103.38 202.11 101.52 204.98 99.05L207 97.31L209.01 99.05C211.88 101.52 214.98 103.38 218.31 104.61C221.35 105.74 224.58 106.35 228 106.45ZM229 105.47L229 122.72C229 130.86 224.86 138.46 218.02 142.88L207 150L195.97 142.88C189.13 138.46 185 130.86 185 122.72L185 105.47C192.09 105.47 198.95 102.92 204.33 98.29L207 96L209.66 98.29C215.04 102.92 221.9 105.47 229 105.47Z" fill="#F23F5D" fill-opacity="0.300000" fill-rule="evenodd"/>
		</g>
		<g filter="url(#filter_2843_991_dd)">
			<path id="Union" d="M207 117C204.791 117 203 118.791 203 121C203 122.259 203.582 123.382 204.49 124.115L204 130L210 130L209.51 124.115C210.418 123.382 211 122.259 211 121C211 118.791 209.209 117 207 117Z" clip-rule="evenodd" fill="#FFFFFF" fill-opacity="1.000000" fill-rule="evenodd"/>
		</g>
	</g>
</svg>
