<svg width="60.000000" height="60.000000" viewBox="0 0 60 60" fill="none" xmlns="http://www.w3.org/2000/svg" xmlns:xlink="http://www.w3.org/1999/xlink">
	<desc>
			Created with Pixso.
	</desc>
	<defs/>
	<circle id="椭圆 13" cx="30.000000" cy="30.000000" r="30.000000" fill="#140F0F" fill-opacity="1.000000"/>
	<circle id="椭圆 13" cx="30.000000" cy="30.000000" r="29.500000" stroke="#FFFFFF" stroke-opacity="0.250000" stroke-width="1.000000"/>
	<path id="Vector" d="M38.31 21.65C36.76 20.87 35.11 20.32 33.43 20C33.41 19.99 33.4 20 33.38 20C33.37 20.01 33.36 20.02 33.35 20.04C33.14 20.45 32.9 20.98 32.74 21.4C30.92 21.1 29.07 21.1 27.25 21.4C27.07 20.94 26.86 20.48 26.64 20.04C26.63 20.02 26.62 20.01 26.6 20C26.59 20 26.57 19.99 26.56 20C24.87 20.31 23.23 20.87 21.67 21.65C21.66 21.66 21.65 21.67 21.64 21.68C18.53 26.77 17.68 31.72 18.09 36.62C18.1 36.63 18.1 36.64 18.1 36.65C18.11 36.66 18.12 36.67 18.13 36.68C19.94 38.15 21.96 39.27 24.12 39.99C24.13 40 24.15 40 24.16 39.99C24.18 39.99 24.19 39.98 24.2 39.96C24.66 39.27 25.08 38.55 25.43 37.78C25.43 37.77 25.44 37.76 25.44 37.75C25.44 37.74 25.44 37.72 25.43 37.71C25.43 37.7 25.42 37.69 25.41 37.68C25.41 37.68 25.4 37.67 25.39 37.66C24.74 37.39 24.11 37.07 23.52 36.69C23.5 36.68 23.5 36.67 23.49 36.66C23.48 36.65 23.48 36.64 23.48 36.62C23.48 36.61 23.48 36.59 23.48 36.58C23.49 36.57 23.5 36.56 23.51 36.55C23.63 36.45 23.76 36.34 23.88 36.23C23.89 36.22 23.9 36.22 23.92 36.21C23.93 36.21 23.94 36.21 23.96 36.22C27.88 38.18 32.14 38.18 36.02 36.22C36.03 36.21 36.04 36.21 36.06 36.21C36.07 36.21 36.09 36.22 36.1 36.23C36.22 36.34 36.34 36.45 36.47 36.55C36.48 36.56 36.49 36.57 36.49 36.58C36.5 36.59 36.5 36.61 36.5 36.62C36.5 36.63 36.5 36.65 36.49 36.66C36.48 36.67 36.47 36.68 36.46 36.69C35.86 37.07 35.24 37.4 34.59 37.66C34.57 37.67 34.56 37.68 34.55 37.7C34.54 37.71 34.54 37.73 34.54 37.75C34.54 37.76 34.54 37.77 34.55 37.78C34.91 38.54 35.32 39.27 35.77 39.96C35.78 39.97 35.8 39.98 35.81 39.99C35.83 40 35.84 40 35.86 39.99C38.02 39.27 40.05 38.15 41.86 36.68C41.87 36.67 41.88 36.66 41.88 36.65C41.89 36.64 41.89 36.63 41.89 36.62C42.39 30.96 41.05 26.04 38.34 21.68C38.34 21.67 38.33 21.66 38.31 21.65ZM26.02 33.64C24.83 33.64 23.86 32.45 23.86 30.99C23.86 29.53 24.81 28.35 26.02 28.35C27.23 28.35 28.19 29.54 28.17 30.99C28.17 32.45 27.22 33.64 26.02 33.64ZM33.99 33.64C32.81 33.64 31.83 32.45 31.83 30.99C31.83 29.53 32.79 28.35 33.99 28.35C35.2 28.35 36.17 29.54 36.15 30.99C36.15 32.45 35.2 33.64 33.99 33.64Z" fill="#FFFFFF" fill-opacity="1.000000" fill-rule="evenodd"/>
</svg>
