<svg width="16.000000" height="16.000000" viewBox="0 0 16 16" fill="none" xmlns="http://www.w3.org/2000/svg" xmlns:xlink="http://www.w3.org/1999/xlink">
	<desc>
			Created with Pixso.
	</desc>
	<defs>
		<clipPath id="clip379_335">
			<rect id="telegram.19a5a5db.svg" width="16.000000" height="16.000000" fill="white" fill-opacity="0"/>
		</clipPath>
		<clipPath id="clip379_334">
			<rect id="telegram.19a5a5db.svg fill" width="16.000000" height="16.000000" fill="white" fill-opacity="0"/>
		</clipPath>
		<clipPath id="clip379_333">
			<rect id="Link → telegram.19a5a5db.svg" width="16.000000" height="16.000000" fill="white" fill-opacity="0"/>
		</clipPath>
	</defs>
	<g clip-path="url(#clip379_333)">
		<g clip-path="url(#clip379_334)">
			<g clip-path="url(#clip379_335)">
				<path id="Vector" d="M15.95 2.5L13.53 13.9C13.35 14.7 12.88 14.9 12.2 14.52L8.52 11.81L6.75 13.5C6.66 13.61 6.55 13.7 6.42 13.76C6.29 13.83 6.15 13.86 6.01 13.86L6.27 10.11L13.09 4C13.39 3.73 13.03 3.59 12.63 3.85L4.2 9.13L0.57 8C-0.22 7.75 -0.23 7.21 0.73 6.83L14.93 1.36C15.59 1.11 16.16 1.5 15.95 2.5Z" fill="#FFFFFF" fill-opacity="1.000000" fill-rule="evenodd"/>
			</g>
		</g>
	</g>
</svg>
